<?xml version="1.0" ?><svg enable-background="new 0 0 512 512" height="512px" id="Layer_1" version="1.1" viewBox="0 0 512 512" width="512px" xml:space="preserve" xmlns="http://www.w3.org/2000/svg" xmlns:xlink="http://www.w3.org/1999/xlink"><path d="M322.2,154.8H189.7c-19.3,0-35,15.7-35,35v132.5c0,19.3,15.7,35,35,35h132.5c19.3,0,35-15.7,35-35V189.8  C357.2,170.5,341.5,154.8,322.2,154.8z M313.9,303.6c-9.5,1.7-2.9,12.4-8.7,11.2c-5.8-1.2-17.7-4.3-25.7,1.7  c-10.4,7.7-17.2,9.5-23.6,9.5c-6.4,0-13.2-1.9-23.6-9.5c-8-5.9-19.9-2.9-25.7-1.7c-5.8,1.2,0.8-9.5-8.7-11.2  c-9.5-1.7-21.1-8.7-14.1-10.8s28.2-11.6,30.2-24c2.1-12.4-7.9-12.4-12.8-16.2c-5-3.7-6.2-11.2,2.5-9.5c8.7,1.7,12.4,3.7,12.4-4.1  c0-7.9-6.3-53,39.7-53c46,0,39.7,45.1,39.7,53c0,7.9,3.7,5.8,12.4,4.1c8.7-1.7,7.5,5.8,2.5,9.5c-5,3.7-14.9,3.7-12.8,16.2  s23.2,22,30.2,24C335.1,294.9,323.5,302,313.9,303.6z" fill="#fff"/></svg>