<svg height="512" width="512" xmlns="http://www.w3.org/2000/svg"><g fill="#231F20"><path d="M256 227.5c-15.7 0-28.5 12.8-28.5 28.5s12.8 28.5 28.5 28.5 28.5-12.8 28.5-28.5-12.8-28.5-28.5-28.5z"/><path d="M322.2 154.8H189.8c-19.3 0-35 15.7-35 35v132.5c0 19.3 15.7 35 35 35h132.5c19.3 0 35-15.7 35-35V189.8c-.1-19.3-15.8-35-35.1-35zM256 314.5c-32.2 0-58.5-26.2-58.5-58.5s26.2-58.5 58.5-58.5 58.5 26.2 58.5 58.5-26.3 58.5-58.5 58.5zm79.9-123.9c0 8-6.5 14.5-14.5 14.5s-14.5-6.5-14.5-14.5 6.5-14.5 14.5-14.5 14.5 6.5 14.5 14.5z"/></g></svg>