<svg height="512" width="512" xmlns="http://www.w3.org/2000/svg"><path d="M322.2 154.8H189.7c-19.3 0-35 15.7-35 35v132.5c0 19.3 15.7 35 35 35h132.5c19.3 0 35-15.7 35-35V189.8c0-19.3-15.7-35-35-35zm-8.3 148.8c-9.5 1.7-2.9 12.4-8.7 11.2-5.8-1.2-17.7-4.3-25.7 1.7-10.4 7.7-17.2 9.5-23.6 9.5-6.4 0-13.2-1.9-23.6-9.5-8-5.9-19.9-2.9-25.7-1.7-5.8 1.2.8-9.5-8.7-11.2-9.5-1.7-21.1-8.7-14.1-10.8s28.2-11.6 30.2-24c2.1-12.4-7.9-12.4-12.8-16.2-5-3.7-6.2-11.2 2.5-9.5 8.7 1.7 12.4 3.7 12.4-4.1 0-7.9-6.3-53 39.7-53s39.7 45.1 39.7 53c0 7.9 3.7 5.8 12.4 4.1 8.7-1.7 7.5 5.8 2.5 9.5s-14.9 3.7-12.8 16.2 23.2 22 30.2 24c7.3 2.1-4.3 9.2-13.9 10.8z" fill="#231F20"/></svg>