<svg height="512" width="512" xmlns="http://www.w3.org/2000/svg"><path d="M321.2 154.8H188.7c-19.3 0-35 15.7-35 35v132.5c0 19.3 15.7 35 35 35h132.5c19.3 0 35-15.7 35-35V189.8c0-19.3-15.7-35-35-35zm-11 73.6s3.3 34.9-19.5 59.6c-42.3 45.7-105.2 13.5-105.2 13.5 27 .9 41.9-10.7 41.9-10.7-18.2-2.3-25.6-20.9-25.6-20.9 7.4 1.9 12.1 0 12.1 0-20.5-7-22.3-28.9-22.3-28.9 5.6 5.1 13.5 3.7 13.5 3.7-19.5-13-12.1-41-12.1-41s26.5 31.7 61.4 31.2c0 0-3.3-21.3 14.4-31.2 17.2-9.5 30.5-1 35 7.1 4.7-1 13-4.3 18.3-8.9.1 8.7-10 15.7-10 15.7 9.3-1.4 14.4-4.7 14.4-4.7-4 9.7-16.3 15.5-16.3 15.5z" fill="#231F20"/></svg>